<svg width="19" height="19" viewBox="0 0 19 19" fill="none" xmlns="http://www.w3.org/2000/svg">
<path d="M9.5 9.94922C7.17578 9.94922 5.28125 7.89844 5.28125 5.38867C5.28125 2.9082 7.18555 0.90625 9.5 0.90625C11.834 0.90625 13.7188 2.86914 13.7188 5.36914C13.7188 7.88867 11.8242 9.94922 9.5 9.94922ZM9.5 8.47461C10.9355 8.47461 12.1465 7.09766 12.1465 5.36914C12.1465 3.66016 10.9551 2.38086 9.5 2.38086C8.05469 2.38086 6.85352 3.68945 6.85352 5.38867C6.85352 7.11719 8.07422 8.47461 9.5 8.47461ZM3.35742 18.9922C1.73633 18.9922 0.964844 18.5039 0.964844 17.4297C0.964844 14.8711 4.19727 11.1699 9.5 11.1699C14.793 11.1699 18.0254 14.8711 18.0254 17.4297C18.0254 18.5039 17.2539 18.9922 15.6328 18.9922H3.35742ZM2.89844 17.5176H16.1016C16.3555 17.5176 16.4531 17.4492 16.4531 17.2441C16.4531 15.6328 13.9727 12.6445 9.5 12.6445C5.01758 12.6445 2.53711 15.6328 2.53711 17.2441C2.53711 17.4492 2.64453 17.5176 2.89844 17.5176Z" fill="white" fill-opacity="0.7"/>
</svg>
