<svg width="30" height="31" viewBox="0 0 30 31" fill="none" xmlns="http://www.w3.org/2000/svg">
<path d="M24.7725 21.7033C24.4062 22.5418 23.9727 23.3136 23.4704 24.0232C22.7857 24.9906 22.2251 25.6602 21.7931 26.032C21.1233 26.6424 20.4058 26.955 19.6374 26.9728C19.0857 26.9728 18.4205 26.8172 17.6461 26.5017C16.8692 26.1876 16.1552 26.032 15.5024 26.032C14.8177 26.032 14.0834 26.1876 13.2979 26.5017C12.5113 26.8172 11.8776 26.9816 11.393 26.9979C10.6562 27.0291 9.92173 26.7076 9.1886 26.032C8.72069 25.6276 8.13542 24.9343 7.43429 23.9521C6.68203 22.9033 6.06358 21.687 5.57906 20.3004C5.06017 18.8026 4.80005 17.3523 4.80005 15.9482C4.80005 14.3398 5.15076 12.9526 5.85324 11.7901C6.40532 10.8564 7.13979 10.1198 8.05903 9.57906C8.97827 9.03834 9.97151 8.76279 11.0411 8.74516C11.6264 8.74516 12.3939 8.92456 13.3477 9.27715C14.2988 9.63091 14.9095 9.81032 15.1772 9.81032C15.3774 9.81032 16.0558 9.60054 17.2058 9.18233C18.2934 8.79449 19.2113 8.63391 19.9633 8.69716C22.0009 8.86012 23.5317 9.6561 24.5497 11.0901C22.7274 12.1843 21.826 13.7169 21.8439 15.6829C21.8603 17.2142 22.4209 18.4886 23.5227 19.5004C24.022 19.97 24.5796 20.333 25.2001 20.5907C25.0655 20.9774 24.9235 21.3477 24.7725 21.7033ZM20.0993 3.48014C20.0993 4.68041 19.6568 5.8011 18.7748 6.8384C17.7104 8.07155 16.4229 8.78412 15.0268 8.67168C15.009 8.52769 14.9987 8.37614 14.9987 8.21688C14.9987 7.06462 15.5049 5.83147 16.4038 4.82321C16.8526 4.3127 17.4234 3.88823 18.1155 3.54962C18.8062 3.21606 19.4595 3.03159 20.0739 3C20.0918 3.16046 20.0993 3.32093 20.0993 3.48012V3.48014Z" fill="white"/>
</svg>
