<svg width="20" height="16" viewBox="0 0 20 16" fill="none" xmlns="http://www.w3.org/2000/svg">
<path d="M15.6484 3.72656C14.6953 3.72656 13.9297 2.96094 13.9297 2.01562C13.9297 1.07812 14.6953 0.3125 15.6484 0.3125C16.5859 0.3125 17.3438 1.07812 17.3438 2.01562C17.3438 2.96094 16.5859 3.72656 15.6484 3.72656ZM10 12.2422C9.57031 12.2422 9.21875 11.8906 9.21875 11.4609V7.85938L6.35156 4.97656C5.78906 4.40625 5.61719 3.57812 5.92188 2.83594C6.23438 2.10938 6.9375 1.625 7.73438 1.625H11.5703C12.4453 1.625 13.1406 2.32031 13.1406 3.19531V5.96094H15.5078C15.9375 5.96094 16.2812 6.3125 16.2812 6.74219C16.2812 7.17188 15.9375 7.51562 15.5078 7.51562H12.3594C11.9297 7.51562 11.5781 7.17188 11.5781 6.74219V4.79688C11.5781 4.58594 11.4844 4.36719 11.1797 4.36719H8.67188C8.47656 4.36719 8.39062 4.57812 8.51562 4.71875L10.5625 7C10.7109 7.17188 10.7812 7.34375 10.7812 7.53125V11.4609C10.7812 11.8906 10.4297 12.2422 10 12.2422ZM4.34375 15.3203C1.99219 15.3203 0.101562 13.4297 0.101562 11.0703C0.101562 8.71875 1.99219 6.82031 4.34375 6.82031C6.70312 6.82031 8.59375 8.71875 8.59375 11.0703C8.59375 13.4297 6.70312 15.3203 4.34375 15.3203ZM17.7422 8.73438C17.4062 8.4375 17.4375 8.10938 17.625 7.89844C17.8203 7.6875 18.1484 7.625 18.4375 7.875C19.3359 8.66406 19.8906 9.78906 19.8906 11.0703C19.8906 13.4297 18 15.3203 15.6484 15.3203C13.2891 15.3203 11.3984 13.4297 11.3984 11.0703C11.3984 10.4531 11.5312 9.875 11.7734 9.33594C11.9141 9 12.2188 8.91406 12.4766 9.01562C12.75 9.10938 12.9297 9.40625 12.75 9.82812C12.5859 10.2031 12.5 10.6328 12.5 11.0703C12.5 12.8047 13.9141 14.2188 15.6484 14.2188C17.375 14.2188 18.7891 12.8047 18.7891 11.0703C18.7891 10.1406 18.375 9.30469 17.7422 8.73438ZM4.34375 14.2188C6.07812 14.2188 7.49219 12.8047 7.49219 11.0703C7.49219 9.33594 6.07812 7.92188 4.34375 7.92188C2.61719 7.92188 1.20312 9.33594 1.20312 11.0703C1.20312 12.8047 2.61719 14.2188 4.34375 14.2188Z" fill="white" fill-opacity="0.6"/>
</svg>
