<svg width="20" height="19" viewBox="0 0 20 19" fill="none" xmlns="http://www.w3.org/2000/svg">
<path d="M3.33008 18.9531C1.28906 18.9531 0.263672 17.9473 0.263672 15.9258V4.00195C0.263672 1.98047 1.28906 0.974609 3.33008 0.974609H16.6699C18.7109 0.974609 19.7266 1.99023 19.7266 4.00195V15.9258C19.7266 17.9375 18.7109 18.9531 16.6699 18.9531H3.33008ZM3.18359 17.3809H16.7969C17.666 17.3809 18.1543 16.9219 18.1543 16.0137V6.80469C18.1543 5.90625 17.666 5.4375 16.7969 5.4375H3.18359C2.31445 5.4375 1.83594 5.90625 1.83594 6.80469V16.0137C1.83594 16.9219 2.31445 17.3809 3.18359 17.3809ZM8.0957 8.94336C7.75391 8.94336 7.63672 8.8457 7.63672 8.50391V7.92773C7.63672 7.58594 7.75391 7.47852 8.0957 7.47852H8.67188C9.01367 7.47852 9.12109 7.58594 9.12109 7.92773V8.50391C9.12109 8.8457 9.01367 8.94336 8.67188 8.94336H8.0957ZM11.3379 8.94336C10.9961 8.94336 10.8789 8.8457 10.8789 8.50391V7.92773C10.8789 7.58594 10.9961 7.47852 11.3379 7.47852H11.9141C12.2559 7.47852 12.373 7.58594 12.373 7.92773V8.50391C12.373 8.8457 12.2559 8.94336 11.9141 8.94336H11.3379ZM14.5801 8.94336C14.2383 8.94336 14.1309 8.8457 14.1309 8.50391V7.92773C14.1309 7.58594 14.2383 7.47852 14.5801 7.47852H15.1562C15.498 7.47852 15.6152 7.58594 15.6152 7.92773V8.50391C15.6152 8.8457 15.498 8.94336 15.1562 8.94336H14.5801ZM4.85352 12.1367C4.50195 12.1367 4.39453 12.0391 4.39453 11.6973V11.1211C4.39453 10.7793 4.50195 10.6816 4.85352 10.6816H5.41992C5.77148 10.6816 5.87891 10.7793 5.87891 11.1211V11.6973C5.87891 12.0391 5.77148 12.1367 5.41992 12.1367H4.85352ZM8.0957 12.1367C7.75391 12.1367 7.63672 12.0391 7.63672 11.6973V11.1211C7.63672 10.7793 7.75391 10.6816 8.0957 10.6816H8.67188C9.01367 10.6816 9.12109 10.7793 9.12109 11.1211V11.6973C9.12109 12.0391 9.01367 12.1367 8.67188 12.1367H8.0957ZM11.3379 12.1367C10.9961 12.1367 10.8789 12.0391 10.8789 11.6973V11.1211C10.8789 10.7793 10.9961 10.6816 11.3379 10.6816H11.9141C12.2559 10.6816 12.373 10.7793 12.373 11.1211V11.6973C12.373 12.0391 12.2559 12.1367 11.9141 12.1367H11.3379ZM14.5801 12.1367C14.2383 12.1367 14.1309 12.0391 14.1309 11.6973V11.1211C14.1309 10.7793 14.2383 10.6816 14.5801 10.6816H15.1562C15.498 10.6816 15.6152 10.7793 15.6152 11.1211V11.6973C15.6152 12.0391 15.498 12.1367 15.1562 12.1367H14.5801ZM4.85352 15.3398C4.50195 15.3398 4.39453 15.2324 4.39453 14.8906V14.3145C4.39453 13.9727 4.50195 13.875 4.85352 13.875H5.41992C5.77148 13.875 5.87891 13.9727 5.87891 14.3145V14.8906C5.87891 15.2324 5.77148 15.3398 5.41992 15.3398H4.85352ZM8.0957 15.3398C7.75391 15.3398 7.63672 15.2324 7.63672 14.8906V14.3145C7.63672 13.9727 7.75391 13.875 8.0957 13.875H8.67188C9.01367 13.875 9.12109 13.9727 9.12109 14.3145V14.8906C9.12109 15.2324 9.01367 15.3398 8.67188 15.3398H8.0957ZM11.3379 15.3398C10.9961 15.3398 10.8789 15.2324 10.8789 14.8906V14.3145C10.8789 13.9727 10.9961 13.875 11.3379 13.875H11.9141C12.2559 13.875 12.373 13.9727 12.373 14.3145V14.8906C12.373 15.2324 12.2559 15.3398 11.9141 15.3398H11.3379Z" fill="white"/>
</svg>
