<svg width="21" height="18" viewBox="0 0 21 18" fill="none" xmlns="http://www.w3.org/2000/svg">
<path d="M7.43848 13.6465C6.16406 13.6465 5.50488 12.8643 5.32031 11.6162L3.91406 1.96582H0.943359C0.591797 1.96582 0.292969 1.6582 0.292969 1.29785C0.292969 0.946289 0.591797 0.638672 0.943359 0.638672H4.02832C4.9248 0.638672 5.1709 0.981445 5.25879 1.6582L5.42578 2.77441H19.7783C20.2617 2.77441 20.5781 3.06445 20.5781 3.48633C20.5781 3.56543 20.5605 3.70605 20.543 3.82031L19.8398 8.46973C19.6553 9.72656 18.9961 10.5176 17.7129 10.5176H6.55957L6.7002 11.4404C6.7793 11.9766 7.08691 12.3281 7.58789 12.3281H17.6953C18.0381 12.3281 18.3369 12.6094 18.3369 12.9873C18.3369 13.3652 18.0381 13.6465 17.6953 13.6465H7.43848ZM19.084 4.10156H5.61914L6.36621 9.19922H17.5811C18.0996 9.19922 18.3896 8.85645 18.46 8.31152L19.084 4.10156ZM8.13281 17.918C7.33301 17.918 6.7002 17.2939 6.7002 16.4941C6.7002 15.7031 7.33301 15.0703 8.13281 15.0703C8.92383 15.0703 9.55664 15.7031 9.55664 16.4941C9.55664 17.2939 8.92383 17.918 8.13281 17.918ZM16.3506 17.918C15.5596 17.918 14.918 17.2939 14.918 16.4941C14.918 15.7031 15.5596 15.0703 16.3506 15.0703C17.1504 15.0703 17.7832 15.7031 17.7832 16.4941C17.7832 17.2939 17.1504 17.918 16.3506 17.918Z" fill="white" fill-opacity="0.6"/>
</svg>
