<svg width="20" height="21" viewBox="0 0 20 21" fill="none" xmlns="http://www.w3.org/2000/svg">
<path d="M10 20.9102C4.56055 20.9102 0.0390625 16.3887 0.0390625 10.9492C0.0390625 5.5 4.55078 0.988281 9.99023 0.988281C15.4395 0.988281 19.9609 5.5 19.9609 10.9492C19.9609 16.3887 15.4492 20.9102 10 20.9102ZM4.89258 12.0039H9.99023C10.3711 12.0039 10.6738 11.7109 10.6738 11.3203V4.73828C10.6738 4.35742 10.3711 4.06445 9.99023 4.06445C9.60938 4.06445 9.31641 4.35742 9.31641 4.73828V10.6465H4.89258C4.50195 10.6465 4.20898 10.9395 4.20898 11.3203C4.20898 11.7109 4.50195 12.0039 4.89258 12.0039Z" fill="white"/>
</svg>
