<svg width="19" height="23" viewBox="0 0 19 23" fill="none" xmlns="http://www.w3.org/2000/svg">
<path d="M3.30469 21.0566C1.29297 21.0566 0.277344 20.041 0.277344 17.9902V3.18555C0.277344 1.14453 1.29297 0.119141 3.30469 0.119141H13.6758C15.6973 0.119141 16.7031 1.13477 16.7031 3.18555V13C16.2637 12.4824 15.7266 12.0527 15.1309 11.7305V3.20508C15.1309 2.23828 14.5742 1.69141 13.5977 1.69141H3.39258C2.37695 1.69141 1.84961 2.24805 1.84961 3.20508V17.9902C1.84961 18.9668 2.38672 19.4844 3.39258 19.4844H7.38672C7.70898 20.0801 8.14844 20.6172 8.65625 21.0566H3.30469ZM4.79883 5.67578C4.4375 5.67578 4.18359 5.40234 4.18359 5.06055C4.18359 4.72852 4.4375 4.47461 4.79883 4.47461H12.2012C12.543 4.47461 12.8066 4.72852 12.8066 5.06055C12.8066 5.40234 12.543 5.67578 12.2012 5.67578H4.79883ZM4.79883 9.07422C4.4375 9.07422 4.18359 8.81055 4.18359 8.46875C4.18359 8.13672 4.4375 7.87305 4.79883 7.87305H12.2012C12.543 7.87305 12.8066 8.13672 12.8066 8.46875C12.8066 8.81055 12.543 9.07422 12.2012 9.07422H4.79883ZM12.3184 21.0566C9.89648 21.0566 7.91406 19.0938 7.91406 16.6719C7.91406 14.25 9.89648 12.2676 12.3184 12.2676C14.7402 12.2676 16.7031 14.2305 16.7031 16.6719C16.7031 17.6094 16.4102 18.4688 15.9121 19.1816L18.1387 21.418C18.3047 21.584 18.4121 21.7988 18.4121 22.0137C18.4121 22.5117 18.0703 22.8633 17.6211 22.8633C17.3574 22.8633 17.1426 22.7754 16.9082 22.541L14.7109 20.3438C14.0273 20.793 13.1973 21.0566 12.3184 21.0566ZM12.3184 19.6602C13.959 19.6602 15.2969 18.3125 15.2969 16.6719C15.2969 15.0312 13.9492 13.6738 12.3184 13.6738C10.6582 13.6738 9.31055 15.0312 9.31055 16.6719C9.31055 18.3125 10.6582 19.6602 12.3184 19.6602Z" fill="white" fill-opacity="0.6"/>
</svg>
