<svg width="30" height="31" viewBox="0 0 30 31" fill="none" xmlns="http://www.w3.org/2000/svg">
<path d="M26.4702 13.2088H25.5279V13.1603H15V17.8393H21.611C20.6465 20.5631 18.0549 22.5184 15 22.5184C11.124 22.5184 7.98143 19.3758 7.98143 15.4998C7.98143 11.6238 11.124 8.48119 15 8.48119C16.7892 8.48119 18.4169 9.15614 19.6563 10.2586L22.965 6.94997C20.8758 5.00289 18.0812 3.80212 15 3.80212C8.54 3.80212 3.30237 9.03975 3.30237 15.4998C3.30237 21.9598 8.54 27.1975 15 27.1975C21.4601 27.1975 26.6977 21.9598 26.6977 15.4998C26.6977 14.7155 26.617 13.9498 26.4702 13.2088Z" fill="#FFC107"/>
<path d="M4.65039 10.0551L8.49366 12.8737C9.53358 10.299 12.0521 8.48119 14.9993 8.48119C16.7885 8.48119 18.4162 9.15614 19.6556 10.2586L22.9643 6.94996C20.8751 5.00289 18.0805 3.80212 14.9993 3.80212C10.5062 3.80212 6.60975 6.33876 4.65039 10.0551Z" fill="#FF3D00"/>
<path d="M15.0001 27.1979C18.0217 27.1979 20.7671 26.0416 22.8428 24.1612L19.2224 21.0976C18.0085 22.0207 16.5252 22.52 15.0001 22.5188C11.9576 22.5188 9.37416 20.5788 8.40091 17.8713L4.5863 20.8104C6.52227 24.5987 10.4539 27.1979 15.0001 27.1979Z" fill="#4CAF50"/>
<path d="M26.4701 13.2088H25.5279V13.1603H15V17.8393H21.6109C21.1496 19.1357 20.3186 20.2685 19.2205 21.0977L19.2223 21.0966L22.8427 24.1602C22.5865 24.393 26.6977 21.3486 26.6977 15.4998C26.6977 14.7155 26.617 13.9499 26.4701 13.2088Z" fill="#1976D2"/>
</svg>
