<svg width="20" height="20" viewBox="0 0 20 20" fill="none" xmlns="http://www.w3.org/2000/svg">
<path d="M9.78516 17.126C5.92285 17.126 2.72363 13.9336 2.72363 10.0645C2.72363 6.20215 5.91602 3.00293 9.77832 3.00293C13.6475 3.00293 16.8467 6.20215 16.8467 10.0645C16.8467 13.9336 13.6475 17.126 9.78516 17.126ZM9.78516 15.7383C12.9297 15.7383 15.459 13.209 15.459 10.0645C15.459 6.91992 12.9229 4.39746 9.77832 4.39746C6.63379 4.39746 4.11816 6.91992 4.11816 10.0645C4.11816 13.209 6.64062 15.7383 9.78516 15.7383ZM9.62793 11.4248C9.21777 11.4248 8.98535 11.2266 8.98535 10.8438V10.7686C8.98535 10.1465 9.34082 9.79102 9.82617 9.45605C10.4072 9.05273 10.6943 8.84082 10.6943 8.41016C10.6943 7.94531 10.3184 7.61719 9.76465 7.61719C9.35449 7.61719 9.02637 7.81543 8.80078 8.19141L8.69141 8.32812C8.55469 8.5127 8.39062 8.61523 8.1377 8.61523C7.86426 8.61523 7.60449 8.41016 7.60449 8.08203C7.60449 7.95898 7.625 7.84277 7.66602 7.72656C7.87793 7.08398 8.67773 6.55078 9.84668 6.55078C11.0566 6.55078 12.082 7.2002 12.082 8.3418C12.082 9.13477 11.6445 9.52441 10.9746 9.96875C10.5303 10.2559 10.2842 10.4951 10.2637 10.8506C10.2637 10.8711 10.2637 10.9053 10.2637 10.9326C10.2432 11.2129 10.0039 11.4248 9.62793 11.4248ZM9.62109 13.5234C9.18359 13.5234 8.82129 13.2021 8.82129 12.7715C8.82129 12.3477 9.17676 12.0264 9.62109 12.0264C10.0586 12.0264 10.4209 12.3408 10.4209 12.7715C10.4209 13.2021 10.0586 13.5234 9.62109 13.5234Z" fill="white"/>
</svg>
