<svg width="16" height="18" viewBox="0 0 16 18" fill="none" xmlns="http://www.w3.org/2000/svg">
<path d="M3.375 17.2422C1.89844 17.2422 1.07812 16.4453 1.07812 14.9688V10.2891H1.03125C0.351562 10.1016 -0.0078125 9.51562 -0.0078125 8.67188V6.6875C-0.0078125 5.63281 0.617188 4.97656 1.63281 4.97656H2.99219C2.57031 4.54688 2.32812 3.97656 2.32812 3.3125C2.32812 1.76562 3.5625 0.648438 5.11719 0.648438C6.26562 0.648438 7.24219 1.29688 7.625 2.4375C8.00781 1.29688 8.97656 0.648438 10.1328 0.648438C11.6797 0.648438 12.9219 1.76562 12.9219 3.3125C12.9219 3.97656 12.6719 4.54688 12.25 4.97656H13.6172C14.6719 4.97656 15.2578 5.63281 15.2578 6.6875V8.67188C15.2578 9.51562 14.8984 10.1016 14.2188 10.2891H14.1719V14.9688C14.1719 16.4453 13.3438 17.2422 11.8672 17.2422H3.375ZM6.88281 4.97656V3.9375C6.88281 2.83594 6.15625 2.11719 5.25 2.11719C4.40625 2.11719 3.82031 2.625 3.82031 3.46094C3.82031 4.3125 4.50781 4.97656 5.71094 4.97656H6.88281ZM8.35938 4.97656H9.53906C10.7344 4.97656 11.4297 4.3125 11.4297 3.46094C11.4297 2.625 10.8438 2.11719 10 2.11719C9.09375 2.11719 8.35938 2.83594 8.35938 3.9375V4.97656ZM6.83594 9V6.35938H2.03906C1.66406 6.35938 1.50781 6.51562 1.50781 6.89062V8.46875C1.50781 8.84375 1.66406 9 2.03906 9H6.83594ZM8.40625 9H13.2188C13.5938 9 13.7422 8.85156 13.7422 8.48438V6.89062C13.7422 6.51562 13.5938 6.35938 13.2188 6.35938H8.40625V9ZM6.83594 15.8438V10.3828H2.59375V14.8828C2.59375 15.4922 2.9375 15.8438 3.55469 15.8438H6.83594ZM8.40625 15.8438H11.6875C12.3047 15.8438 12.6562 15.4922 12.6562 14.8828V10.3828H8.40625V15.8438Z" fill="white"/>
</svg>
