<svg width="15" height="17" viewBox="0 0 15 17" fill="none" xmlns="http://www.w3.org/2000/svg">
<path d="M11.375 5.64844C9.88281 5.64844 8.66406 4.42969 8.66406 2.94531C8.66406 1.45312 9.88281 0.234375 11.375 0.234375C12.8516 0.234375 14.0859 1.45312 14.0859 2.94531C14.0859 4.42969 12.8516 5.64844 11.375 5.64844ZM0.15625 12.6562C0.15625 11.875 0.945312 11.1719 1.625 10.4766C2.14062 9.9375 2.28125 8.82812 2.34375 7.92969C2.39844 4.85156 3.19531 2.86719 5.27344 2.11719C5.53125 1.09375 6.375 0.289062 7.52344 0.289062C7.88281 0.289062 8.21094 0.367188 8.5 0.507812C8.25 0.804688 8.05469 1.14062 7.90625 1.5C7.79688 1.45312 7.66406 1.4375 7.52344 1.4375C6.80469 1.4375 6.33594 2.00781 6.3125 2.82031C6.30469 3.02344 6.19531 3.11719 6 3.16406C4.66406 3.53125 3.64844 4.61719 3.58594 8.03125C3.51562 9.55469 3.25 10.5625 2.6875 11.1875C2.28125 11.6406 1.8125 12.1016 1.67188 12.3281V12.4219H13.375V12.3281C13.2344 12.1016 12.7734 11.6406 12.3594 11.1875C11.8047 10.5625 11.5391 9.55469 11.4688 8.03125C11.4609 7.50781 11.4297 7.0625 11.3828 6.64844C11.7656 6.66406 12.25 6.59375 12.6172 6.47656C12.6641 6.9375 12.7031 7.41406 12.7109 7.92969C12.7734 8.82812 12.9141 9.9375 13.4297 10.4766C14.1016 11.1719 14.8984 11.875 14.8984 12.6562C14.8984 13.2266 14.4531 13.6016 13.7188 13.6016H10.4219C10.3594 15.1094 9.17969 16.4297 7.52344 16.4297C5.875 16.4297 4.69531 15.1094 4.63281 13.6016H1.33594C0.59375 13.6016 0.15625 13.2266 0.15625 12.6562ZM5.85156 13.6016C5.90625 14.6641 6.58594 15.3281 7.52344 15.3281C8.46875 15.3281 9.14062 14.6641 9.20312 13.6016H5.85156Z" fill="white"/>
</svg>
