<svg width="18" height="22" viewBox="0 0 18 22" fill="none" xmlns="http://www.w3.org/2000/svg">
<path d="M0.787109 18.3613V3.54688C0.787109 1.51562 1.79297 0.480469 3.81445 0.480469H14.1855C16.207 0.480469 17.2129 1.51562 17.2129 3.54688V18.3613C17.2129 20.4023 16.207 21.418 14.1855 21.418H3.81445C1.79297 21.418 0.787109 20.4023 0.787109 18.3613ZM2.35938 18.332C2.35938 19.3086 2.87695 19.8457 3.89258 19.8457H14.1074C15.123 19.8457 15.6406 19.3086 15.6406 18.332V3.57617C15.6406 2.59961 15.123 2.05273 14.1074 2.05273H3.89258C2.87695 2.05273 2.35938 2.59961 2.35938 3.57617V18.332ZM5.29883 6.13477C4.94727 6.13477 4.69336 5.87109 4.69336 5.5293C4.69336 5.19727 4.94727 4.93359 5.29883 4.93359H12.7109C13.0527 4.93359 13.3066 5.19727 13.3066 5.5293C13.3066 5.87109 13.0527 6.13477 12.7109 6.13477H5.29883ZM5.29883 9.54297C4.94727 9.54297 4.69336 9.2793 4.69336 8.9375C4.69336 8.60547 4.94727 8.3418 5.29883 8.3418H12.7109C13.0527 8.3418 13.3066 8.60547 13.3066 8.9375C13.3066 9.2793 13.0527 9.54297 12.7109 9.54297H5.29883ZM5.29883 12.9512C4.94727 12.9512 4.69336 12.6973 4.69336 12.3652C4.69336 12.0137 4.94727 11.75 5.29883 11.75H8.80469C9.15625 11.75 9.41016 12.0137 9.41016 12.3652C9.41016 12.6973 9.15625 12.9512 8.80469 12.9512H5.29883Z" fill="white" fill-opacity="0.7"/>
</svg>
