<svg width="22" height="21" viewBox="0 0 22 21" fill="none" xmlns="http://www.w3.org/2000/svg">
<path d="M15.5088 4.09863C14.4453 4.09863 13.5928 3.2373 13.5928 2.18262C13.5928 1.11914 14.4453 0.266602 15.5088 0.266602C16.5723 0.266602 17.4248 1.11914 17.4248 2.18262C17.4248 3.2373 16.5723 4.09863 15.5088 4.09863ZM4.25 3.51855C3.93359 3.51855 3.69629 3.26367 3.69629 2.94727C3.69629 2.63086 3.93359 2.36719 4.25 2.36719H9.32129C9.62891 2.36719 9.875 2.63086 9.875 2.94727C9.875 3.26367 9.62891 3.51855 9.32129 3.51855H4.25ZM17.4951 18.9697L15.6582 15.2432C15.5879 15.1025 15.5615 15.0146 15.3857 14.7861L13.6016 12.5537C12.9336 11.7188 12.7051 11.2529 12.7842 10.2773L12.9248 8.35254C12.9424 8.11523 12.6348 7.97461 12.3975 8.18555L11.7559 8.76562L11.5625 11.042C11.5186 11.6045 11.2197 11.8945 10.7275 11.8594C10.2354 11.8418 9.94531 11.4727 9.98926 10.9453L10.1562 8.87109C10.2002 8.2998 10.3408 7.94824 10.7803 7.51758L12.1162 6.19043C12.9775 5.35547 13.6016 4.88965 14.5332 4.88965C15.7637 4.88965 16.4756 5.80371 16.3877 7.00781L16.2119 9.54785C16.1504 10.4531 16.0273 10.998 15.7285 11.9121L15.6494 12.1494L16.7832 13.7578C16.9502 13.9951 17.1436 14.2939 17.2842 14.5664L19.0771 18.1963C19.666 19.3916 18.04 20.0684 17.4951 18.9697ZM1.10352 7.92188C0.795898 7.92188 0.558594 7.6582 0.558594 7.35059C0.558594 7.04297 0.795898 6.77051 1.10352 6.77051H7.12402C7.44043 6.77051 7.67773 7.03418 7.67773 7.35059C7.67773 7.66699 7.44043 7.92188 7.12402 7.92188H1.10352ZM20.5537 8.31738C21.0811 8.31738 21.4326 8.63379 21.4326 9.1084C21.4326 9.60059 21.0898 9.89941 20.5537 9.89941H18.6641C18.1455 9.89941 17.8906 9.81152 17.6094 9.53027L17.0996 9.02051L17.249 6.90234L18.5322 8.31738H20.5537ZM3.73145 12.3252C3.41504 12.3252 3.17773 12.0703 3.17773 11.7539C3.17773 11.4375 3.41504 11.1738 3.73145 11.1738H7.08008C7.3877 11.1738 7.625 11.4375 7.625 11.7539C7.625 12.0703 7.3877 12.3252 7.08008 12.3252H3.73145ZM11.0703 19.2334C10.3848 20.0508 9.03125 19.084 9.85742 18.0908L12.459 14.9971L12.8896 13.0107L14.3047 14.7861L14.1113 15.3838C14.0059 15.709 13.9707 15.7793 13.707 16.0869L11.0703 19.2334ZM1.41992 16.6758C1.1123 16.6758 0.875 16.4209 0.875 16.1045C0.875 15.7881 1.1123 15.5244 1.41992 15.5244H6.00781C6.31543 15.5244 6.55273 15.7881 6.55273 16.1045C6.55273 16.4209 6.31543 16.6758 6.00781 16.6758H1.41992Z" fill="white"/>
</svg>
