<svg width="18" height="18" viewBox="0 0 18 18" fill="none" xmlns="http://www.w3.org/2000/svg">
<path d="M0.944336 5.65723C0.496094 5.65723 0.241211 5.39355 0.241211 4.93652V2.7832C0.241211 0.972656 1.16406 0.0673828 3.00098 0.0673828H5.14551C5.61133 0.0673828 5.86621 0.313477 5.86621 0.770508C5.86621 1.22754 5.61133 1.48242 5.14551 1.48242H3.01855C2.13965 1.48242 1.65625 1.94824 1.65625 2.8623V4.93652C1.65625 5.39355 1.41016 5.65723 0.944336 5.65723ZM16.7383 5.65723C16.29 5.65723 16.0352 5.39355 16.0352 4.93652V2.8623C16.0352 1.94824 15.5342 1.48242 14.6641 1.48242H12.5371C12.0801 1.48242 11.8252 1.22754 11.8252 0.770508C11.8252 0.313477 12.0801 0.0673828 12.5371 0.0673828H14.6904C16.5273 0.0673828 17.4502 0.972656 17.4502 2.7832V4.93652C17.4502 5.39355 17.2041 5.65723 16.7383 5.65723ZM5.01367 8.28516C4.79395 8.28516 4.62695 8.11816 4.62695 7.90723V4.83984C4.62695 4.62891 4.79395 4.45312 5.01367 4.45312H8.07227C8.29199 4.45312 8.45898 4.62891 8.45898 4.83984V7.90723C8.45898 8.11816 8.29199 8.28516 8.07227 8.28516H5.01367ZM9.60156 8.28516C9.38184 8.28516 9.21484 8.11816 9.21484 7.90723V4.83984C9.21484 4.62891 9.38184 4.45312 9.60156 4.45312H12.6602C12.8799 4.45312 13.0469 4.62891 13.0469 4.83984V7.90723C13.0469 8.11816 12.8799 8.28516 12.6602 8.28516H9.60156ZM5.3916 7.52051H7.69434V5.21777H5.3916V7.52051ZM9.97949 7.52051H12.2822V5.21777H9.97949V7.52051ZM6.05957 6.85254V5.88574H7.02637V6.85254H6.05957ZM10.6562 6.85254V5.88574H11.6143V6.85254H10.6562ZM5.01367 12.8818C4.79395 12.8818 4.62695 12.7148 4.62695 12.4951V9.43652C4.62695 9.2168 4.79395 9.0498 5.01367 9.0498H8.07227C8.29199 9.0498 8.45898 9.2168 8.45898 9.43652V12.4951C8.45898 12.7148 8.29199 12.8818 8.07227 12.8818H5.01367ZM9.3291 10.1133V9.15527H10.2871V10.1133H9.3291ZM11.9746 10.1133V9.15527H12.9326V10.1133H11.9746ZM5.3916 12.1172H7.69434V9.81445H5.3916V12.1172ZM6.05957 11.4404V10.4824H7.02637V11.4404H6.05957ZM10.6475 11.4404V10.4824H11.6143V11.4404H10.6475ZM3.00098 17.2676C1.16406 17.2676 0.241211 16.3623 0.241211 14.543V12.3984C0.241211 11.9326 0.487305 11.6777 0.944336 11.6777C1.40137 11.6777 1.65625 11.9326 1.65625 12.3984V14.4727C1.65625 15.3867 2.13965 15.8525 3.01855 15.8525H5.14551C5.61133 15.8525 5.86621 16.1074 5.86621 16.5645C5.86621 17.0127 5.61133 17.2676 5.14551 17.2676H3.00098ZM12.5371 17.2676C12.0801 17.2676 11.8252 17.0127 11.8252 16.5645C11.8252 16.1074 12.0801 15.8525 12.5371 15.8525H14.6641C15.5342 15.8525 16.0352 15.3867 16.0352 14.4727V12.3984C16.0352 11.9326 16.2812 11.6777 16.7383 11.6777C17.1953 11.6777 17.4502 11.9326 17.4502 12.3984V14.543C17.4502 16.3535 16.5273 17.2676 14.6904 17.2676H12.5371ZM9.3291 12.7676V11.8096H10.2871V12.7676H9.3291ZM11.9746 12.7676V11.8096H12.9326V12.7676H11.9746Z" fill="white"/>
</svg>
