<svg width="18" height="19" viewBox="0 0 18 19" fill="none" xmlns="http://www.w3.org/2000/svg">
<path d="M0.0214844 8.00195C0.0214844 4.13477 3.16797 0.988281 7.03516 0.988281C10.9023 0.988281 14.0488 4.13477 14.0488 8.00195C14.0488 9.60156 13.5127 11.0693 12.6074 12.2471L16.9053 16.5713C17.0898 16.7559 17.1953 17.0107 17.1953 17.292C17.1953 17.8809 16.7822 18.3291 16.1846 18.3291C15.9033 18.3291 15.6396 18.2324 15.4375 18.0303L11.1133 13.6973C9.96191 14.5234 8.56445 15.0156 7.03516 15.0156C3.16797 15.0156 0.0214844 11.8691 0.0214844 8.00195ZM1.52441 8.00195C1.52441 11.043 3.99414 13.5127 7.03516 13.5127C10.0762 13.5127 12.5459 11.043 12.5459 8.00195C12.5459 4.96094 10.0762 2.49121 7.03516 2.49121C3.99414 2.49121 1.52441 4.96094 1.52441 8.00195Z" fill="white"/>
</svg>
