<svg width="16" height="16" viewBox="0 0 16 16" fill="none" xmlns="http://www.w3.org/2000/svg">
<path d="M7.91406 14.7158C7.75 14.7158 7.59277 14.709 7.44238 14.6953L7.06641 15.3994C6.97754 15.5771 6.79297 15.6729 6.58105 15.6387C6.36914 15.5977 6.23242 15.4473 6.19824 15.2354L6.08203 14.4561C5.78125 14.374 5.4873 14.2646 5.19336 14.1416L4.61914 14.6543C4.46875 14.791 4.25684 14.832 4.05859 14.7227C3.88086 14.6201 3.80566 14.415 3.84668 14.21L4.00391 13.4443C3.75781 13.2666 3.50488 13.0615 3.2793 12.8496L2.56836 13.1436C2.36328 13.2324 2.16504 13.1777 2.01465 13.0068C1.88477 12.8496 1.87109 12.6377 1.98047 12.4531L2.39062 11.7832C2.21973 11.5303 2.07617 11.2568 1.92578 10.9697L1.14648 11.0039C0.941406 11.0176 0.743164 10.9014 0.681641 10.6895C0.613281 10.498 0.681641 10.293 0.845703 10.1699L1.4541 9.67773C1.37207 9.37695 1.31738 9.06934 1.29688 8.74805L0.551758 8.50879C0.339844 8.44043 0.223633 8.27637 0.223633 8.06445C0.223633 7.8457 0.339844 7.68164 0.551758 7.62012L1.29688 7.38086C1.31738 7.05957 1.37891 6.75879 1.4541 6.45117L0.838867 5.95898C0.681641 5.83594 0.613281 5.6377 0.681641 5.43945C0.75 5.23438 0.941406 5.11816 1.14648 5.13184L1.92578 5.15918C2.07617 4.86523 2.21973 4.59863 2.39062 4.33887L1.98047 3.66895C1.86426 3.49805 1.8916 3.28613 2.01465 3.12891C2.16504 2.95801 2.36328 2.91016 2.56152 2.99219L3.28613 3.27246C3.50488 3.07422 3.75781 2.8623 4.00391 2.67773L3.84668 1.92578C3.79883 1.7002 3.88086 1.50879 4.05859 1.41309C4.25684 1.30371 4.46875 1.33105 4.61914 1.48145L5.19336 1.9873C5.4873 1.86426 5.78125 1.76172 6.08203 1.67285L6.19824 0.900391C6.23242 0.688477 6.36914 0.538086 6.57422 0.49707C6.79297 0.462891 6.97754 0.558594 7.06641 0.729492L7.44238 1.43359C7.59961 1.41992 7.75 1.41309 7.91406 1.41309C8.07129 1.41309 8.22168 1.41992 8.37891 1.43359L8.75488 0.729492C8.84375 0.558594 9.02832 0.462891 9.24023 0.49707C9.45215 0.538086 9.5957 0.688477 9.62305 0.900391L9.73926 1.67285C10.04 1.76172 10.334 1.86426 10.6211 1.9873L11.2021 1.47461C11.3525 1.33105 11.5645 1.30371 11.7627 1.41309C11.9404 1.50879 12.0225 1.7002 11.9746 1.92578L11.8174 2.67773C12.0635 2.8623 12.3164 3.07422 12.5352 3.27246L13.2529 2.99219C13.458 2.91016 13.6562 2.95801 13.8066 3.12891C13.9297 3.28613 13.9502 3.49805 13.8408 3.66895L13.4307 4.33887C13.6016 4.59863 13.752 4.86523 13.8955 5.15918L14.6748 5.13184C14.8799 5.11816 15.0781 5.23438 15.1396 5.44629C15.208 5.6377 15.1328 5.83594 14.9756 5.95898L14.3672 6.44434C14.4424 6.75879 14.4971 7.05957 14.5312 7.38086L15.2627 7.62012C15.4746 7.68848 15.6113 7.85254 15.6113 8.06445C15.6113 8.27637 15.4746 8.44043 15.2627 8.50879L14.5312 8.74805C14.4971 9.06934 14.4492 9.37695 14.3672 9.67773L14.9824 10.1699C15.1328 10.293 15.208 10.498 15.1396 10.6963C15.0781 10.9014 14.8799 11.0176 14.6748 11.0039L13.8955 10.9697C13.752 11.2568 13.6016 11.5303 13.4307 11.7832L13.8408 12.4531C13.9502 12.6377 13.9365 12.8496 13.8066 13.0068C13.6562 13.1777 13.458 13.2324 13.2529 13.1436L12.5352 12.8496C12.3164 13.0615 12.0635 13.2666 11.8174 13.4443L11.9746 14.21C12.0293 14.415 11.9404 14.6201 11.7695 14.7227C11.5645 14.832 11.3525 14.791 11.2021 14.6543L10.6211 14.1416C10.334 14.2646 10.04 14.374 9.73926 14.4561L9.62305 15.2354C9.5957 15.4473 9.45215 15.5977 9.24707 15.6387C9.02832 15.6729 8.84375 15.5771 8.75488 15.3994L8.37891 14.6953C8.22168 14.709 8.07129 14.7158 7.91406 14.7158ZM7.90039 6.1709C8.74805 6.1709 9.47266 6.72461 9.71875 7.49707H13.1914C12.918 4.79004 10.7031 2.70508 7.91406 2.70508C7.11426 2.70508 6.3623 2.87598 5.69238 3.18359L7.46289 6.21875C7.59961 6.18457 7.75 6.1709 7.90039 6.1709ZM2.61621 8.07129C2.61621 9.82129 3.41602 11.3594 4.68066 12.3369L6.49902 9.36328C6.18457 9.02148 6 8.57031 6 8.07812C6 7.5791 6.18457 7.12793 6.49902 6.78613L4.72852 3.75781C3.43652 4.73535 2.61621 6.29395 2.61621 8.07129ZM7.90039 8.84375C8.33789 8.84375 8.67969 8.51562 8.67969 8.07812C8.67969 7.63379 8.33789 7.29883 7.90039 7.29883C7.46289 7.29883 7.12793 7.63379 7.12793 8.07812C7.12793 8.51562 7.46289 8.84375 7.90039 8.84375ZM7.91406 13.4238C10.7168 13.4238 12.9316 11.332 13.1914 8.61133H9.72559C9.5 9.4043 8.76855 9.97168 7.90039 9.97168C7.75 9.97168 7.59961 9.95801 7.45605 9.92383L5.6377 12.918C6.32129 13.2393 7.09375 13.4238 7.91406 13.4238Z" fill="white"/>
</svg>
