<svg width="43" height="44" viewBox="0 0 43 44" fill="none" xmlns="http://www.w3.org/2000/svg">
<path d="M13.2646 18.999C12.8955 18.999 12.6055 18.709 12.6055 18.3398C12.6055 17.9707 12.8955 17.6719 13.2646 17.6719H29.7178C30.0869 17.6719 30.3857 17.9707 30.3857 18.3398C30.3857 18.709 30.0869 18.999 29.7178 18.999H13.2646ZM13.2646 22.8311C12.8955 22.8311 12.6055 22.541 12.6055 22.1719C12.6055 21.7939 12.8955 21.4951 13.2646 21.4951H29.7178C30.0869 21.4951 30.3857 21.7939 30.3857 22.1719C30.3857 22.541 30.0869 22.8311 29.7178 22.8311H13.2646ZM13.2646 26.6719C12.8955 26.6719 12.6055 26.373 12.6055 25.9951C12.6055 25.626 12.8955 25.3359 13.2646 25.3359H29.7178C30.0869 25.3359 30.3857 25.626 30.3857 25.9951C30.3857 26.373 30.0869 26.6719 29.7178 26.6719H13.2646Z" fill="white"/>
</svg>
